<svg width="180" height="35" viewBox="0 0 180 35" fill="none" xmlns="http://www.w3.org/2000/svg">
<g clip-path="url(#clip0_7645_117429)">
<path d="M158.589 27.9287L69.8543 27.297L69.7373 2.40939L158.589 2.01367V27.9287Z" fill="white"/>
<path fill-rule="evenodd" clip-rule="evenodd" d="M153.485 27.8906L154.287 22.596L155.08 17.3801L155.159 16.827L155.317 16.274L155.515 15.7615L155.713 15.2489L155.911 14.8532L156.028 14.4575L156.069 14.0618V13.7066L155.978 13.349L155.859 13.0343L155.701 12.7173L155.503 12.4407L155.264 12.1642L154.987 11.9258L154.672 11.7279L154.354 11.5682L153.998 11.4109L153.602 11.3322L153.246 11.2536L152.854 11.2178L152.417 11.2583L152.021 11.2965L151.586 11.3775L151.192 11.4943L150.32 11.8114L149.489 12.2071L148.698 12.6004L147.906 13.0367L147.189 13.5492L146.473 14.026L145.801 14.5791L145.169 15.1703L144.574 15.802L144.017 16.4337L143.504 17.1489L143.026 17.8998L142.592 18.6507L142.195 19.4803L141.839 20.3099L141.531 21.2158L141.412 21.6496L141.333 22.0835L141.295 22.5197V22.9536V23.3851L141.373 23.7808L141.452 24.136L141.572 24.4531L141.729 24.7677L141.928 25.0443L142.126 25.2826L142.365 25.521L142.642 25.6784L142.919 25.8381L143.275 25.9549L143.592 25.9954L143.948 26.0336H144.345L144.779 25.9954L145.176 25.9168L146.045 25.7189L146.838 25.4018L147.629 25.0466L148.345 24.6128L149.062 24.136L149.733 23.5829L150.368 22.9894L150.991 22.4077L151.347 22.012L151.586 21.8546L151.863 21.6568L151.624 23.1968L151.307 24.7773L151.03 26.3578L150.752 27.9383H152.138L152.89 27.8977H153.485V28.334L153.444 28.7679L153.365 29.1636L153.287 29.5974L153.167 29.9932L153.009 30.3865L152.852 30.7441L152.654 31.0993L152.415 31.4545L152.176 31.8097L151.66 32.4319L151.068 33.0255L150.394 33.538L149.678 34.0148L148.925 34.37L148.135 34.6465L147.304 34.8849L146.867 34.923L146.47 34.9635L146.035 35.0017H145.601L145.204 34.9635L144.77 34.8849L144.373 34.8038L143.939 34.687L143.265 34.4486L142.632 34.1721L142.006 33.8503L141.412 33.4927L140.858 33.0994L140.303 32.6583L139.749 32.2245L139.241 31.7215L138.964 31.4449L138.844 31.2876L138.765 31.1279L138.727 30.7727L138.687 30.377V29.6618L139.319 29.7405L139.637 29.781L139.952 29.9002L141.061 30.4914L142.169 31.1231L143.318 31.6762L143.91 31.9527L144.505 32.1911L145.018 32.3484L145.534 32.4676L146.012 32.5463H146.922L147.318 32.4676L147.712 32.3484L148.068 32.1911L148.426 31.9932L148.741 31.7549L149.059 31.4783L149.336 31.1231L149.613 30.7679L149.852 30.3341L150.091 29.8573L150.33 29.3448L150.528 28.6725L150.767 27.9216H70.934L70.4993 27.8811L70.1028 27.8429L69.7064 27.7237L69.3505 27.5664L68.9946 27.3685L68.677 27.092L68.3999 26.7749L68.1611 26.2982L67.9629 25.8214L67.8435 25.3446L67.8052 24.8297L67.7646 14.9557V5.09602V4.74082L67.8052 4.42377L67.8841 4.14724L68.0035 3.87071L68.0823 3.59418L68.2399 3.35579L68.3976 3.1174L68.5958 2.87902L68.794 2.7193L69.0329 2.52382L69.2717 2.40463L69.5487 2.24729L69.8258 2.16624L70.141 2.08757L70.4563 2.0542L70.774 2.01367H165.751L166.148 2.09234L166.542 2.17101L166.898 2.2902L167.215 2.44754L167.533 2.68592L167.808 3.00059L168.087 3.43684L168.362 3.94938L168.522 4.50243L168.56 4.77896V5.01735L168.601 14.9724V24.8869V25.204L168.56 25.4781L168.481 25.7952L168.402 26.0717L168.324 26.3101L168.166 26.5485L168.046 26.7869L167.848 26.9847L167.691 27.1826L167.492 27.3804L167.254 27.4996L167.015 27.657L166.776 27.7356L166.499 27.8143L166.222 27.8548L165.945 27.893L162.857 27.9335H159.78L153.485 27.8906ZM94.9082 21.6925L94.71 21.6139L95.0563 19.6734L95.2163 18.7198L95.4145 17.7663L96.6087 12.6314L97.2058 10.1117L97.7599 7.54425L97.8793 6.75519L97.9581 5.96375V5.13416L97.9223 4.3451L97.8841 4.06857L97.8053 3.79204L97.6858 3.59418L97.4876 3.39632L97.2894 3.23898L97.0505 3.11979L96.8117 3.04112H96.5729L96.3746 3.08165L96.1764 3.16031L95.9806 3.27712L95.8205 3.39632L95.4647 3.75151L95.2258 4.10671L95.1064 4.30457L95.0276 4.54296L94.87 4.97682L94.7888 5.4822L94.71 5.95898L93.7546 12.5957L92.7658 19.2705L92.527 20.7724L92.25 22.2337L91.7341 25.235L91.6959 25.5115V25.7499L91.7341 25.9883L91.8153 26.1861L91.9323 26.384L92.0923 26.5819L92.2882 26.7392L92.527 26.8584L92.7658 26.937L93.0429 27.0157H93.2817L93.5206 26.9752L93.7188 26.8965L93.917 26.7773L94.1153 26.6605L94.3111 26.4627L94.8676 25.7904L95.3811 25.0395L97.1222 22.1955L97.9939 20.7652L98.9039 19.3802L99.4962 18.4719L100.17 17.6423L100.886 16.8127L101.603 16.0237L101.842 15.7853L102.08 15.6685L102.319 15.5898L102.517 15.628L102.716 15.7472L102.873 15.9045L103.031 16.181L103.15 16.4981L103.229 16.8938L103.308 17.249L103.387 18.0381L103.774 20.739L103.972 22.043L104.211 23.3851L104.29 23.7403L104.409 24.0979L104.607 24.4531L104.805 24.7677L105.044 25.0443L105.321 25.2826L105.639 25.521L105.995 25.6784L106.272 25.7594L106.511 25.8381H107.027L107.265 25.7594L107.504 25.6402L107.703 25.521L107.898 25.3232L108.058 25.1253L108.178 24.8869V24.4912L108.097 24.2933L108.018 24.0979L107.741 23.7403L107.344 23.1086L106.988 22.4363L106.711 21.7664L106.513 21.0942L106.317 20.379L106.198 19.6639L105.959 18.2002L105.842 17.094L105.644 15.9879L105.446 14.9223L105.169 13.8567L105.011 13.38L104.891 13.1416L104.734 12.9842L104.614 12.8269L104.457 12.6672L104.297 12.5504L104.101 12.4717L103.893 12.3954L103.695 12.3573H103.26L103.021 12.3954L102.783 12.436L102.305 12.6338L101.672 12.989L101.039 13.3847L100.485 13.8615L99.9691 14.374L99.1379 15.361L98.3522 16.3527L97.5999 17.3801L96.8833 18.4481L96.3675 19.2371L95.8587 20.0238L94.9034 21.6925H94.9082ZM124.118 21.8093L123.879 21.7307L124.275 19.5852L124.433 18.4791L124.593 17.4135L124.71 16.386L124.789 15.3991L124.829 14.4122L124.87 13.3847V13.1869L124.829 12.9485L124.751 12.7101L124.631 12.5528L124.512 12.393L124.316 12.2357L124.118 12.1976L123.879 12.157L123.523 12.2357L123.126 12.3549L122.811 12.5528L122.534 12.8293L122.415 12.9461L122.336 13.144L122.217 13.4992L122.138 13.8949L122.059 14.2501L122.018 14.6458V15.4349L121.98 15.8306L121.108 24.4125L121.07 25.0443V25.3208L121.149 25.6378L121.268 25.8762L121.426 26.1146L121.665 26.3125L121.982 26.4698L122.298 26.589L122.615 26.6271L122.892 26.589L123.21 26.5485L123.487 26.3911L123.764 26.1933L124.041 25.9549L124.318 25.6402L124.674 25.0872L125.03 24.4936L125.746 23.3016L127.18 20.6937L127.932 19.3897L128.648 18.0881L128.964 17.5732L129.322 17.0964L129.678 16.6626L130.072 16.2287L130.404 15.9712L130.719 15.7734L130.996 15.6947H131.273L131.393 15.7329L131.512 15.8115L131.751 16.0094L131.949 16.3264L132.147 16.7222L132.264 17.1155L132.384 17.5517L132.541 18.4195L132.938 21.0274L133.334 23.6354L133.413 24.0287L133.532 24.4244L133.69 24.7415L133.888 25.0562L134.127 25.2946L134.445 25.5329L134.801 25.6903L135.197 25.8095L135.675 25.85H136.11L136.544 25.7713L136.941 25.6521L137.337 25.4924L137.693 25.254L138.008 24.937L138.326 24.5436L138.405 24.4244L138.445 24.2671L138.484 23.9501L138.524 23.5567L138.562 23.2397L137.929 23.1205L137.614 23.0823L137.337 23.1205L137.019 23.1991L136.742 23.2397L136.504 23.1991L136.305 23.1205L136.107 23.0013L135.95 22.8058L135.83 22.5674L135.751 22.2909L135.512 21.2634L135.355 20.1978L135.116 18.8152L134.918 17.4731L134.641 16.1286L134.521 15.4563L134.323 14.8246L134.204 14.4313L134.008 14.0737L133.848 13.759L133.609 13.4825L133.37 13.2441L133.093 13.0486L132.823 12.8722L132.546 12.753L132.231 12.6743L131.875 12.6338H131.557L131.201 12.672L130.846 12.7506L130.49 12.8698L130.134 13.0295L129.776 13.2679L129.298 13.585L128.861 13.9783L128.467 14.4146L128.109 14.8913L127.516 15.7615L126.922 16.715L125.866 18.5673L124.994 20.1859L124.125 21.8046L124.118 21.8093ZM79.5511 9.36553L79.2741 11.5396L79.157 12.4932L79.0376 13.4801L78.6412 18.0929L78.4429 20.4219L78.3378 22.7534L78.2972 23.5043L78.3761 24.2933L78.4955 25.0848L78.6149 25.8357L78.6937 26.1122L78.8513 26.3506L78.9708 26.589L79.169 26.7463L79.4078 26.8655L79.6467 26.9442L79.9237 26.9823H80.239L80.516 26.9037L80.7549 26.7845L80.9507 26.6271L81.0701 26.4293L81.1895 26.2314L81.2683 25.993L81.3472 25.7165V25.44V25.0061L81.2683 24.5699L81.1895 24.0573L81.0701 23.5043L80.9913 22.9894V22.4363L81.4905 16.3527L82.0063 10.2309L82.0852 9.91382L82.164 9.63729L82.2834 9.39891L82.441 9.20104L82.6393 9.08185L82.8781 8.96504L83.1551 8.88637H83.4728L87.115 8.76718L90.7166 8.68851L91.2301 8.64799H91.469L91.7078 8.56932L91.8654 8.45012L92.0231 8.29279L92.1043 8.09493L92.1425 7.78026V7.50611L92.1043 7.22958L92.0637 6.95305L91.9443 6.75519L91.7866 6.55733L91.5884 6.4L91.3113 6.2808L90.9961 6.24028L88.5026 6.16161H87.2703L86.0044 6.20213L82.8375 6.44052L79.7111 6.71705L73.3773 7.27011L71.2277 7.46797L70.9889 7.5085L70.8313 7.54664L70.633 7.66583L70.5136 7.7445L70.3942 7.90183L70.3154 8.06155L70.2772 8.25703L70.2366 8.49542V8.7338L70.2772 8.93167L70.3154 9.12953L70.3942 9.28686L70.5542 9.44658L70.6713 9.56339L70.8695 9.64206L71.1083 9.68259L72.6106 9.76125L73.4035 9.80178L74.1559 9.76125L75.4718 9.67782L76.8165 9.59915L79.5464 9.36076L79.5511 9.36553ZM111.887 24.1813L112.006 24.2194L112.085 25.173L112.164 25.6068L112.243 26.0836L112.362 26.4007L112.52 26.6772L112.68 26.8751L112.876 27.0324L113.074 27.1516L113.351 27.2303H113.628L113.905 27.1897L114.223 27.0705L114.462 26.9537L114.66 26.7559L114.858 26.558L114.977 26.2815L115.016 26.005L115.056 25.7284L115.016 25.3732L114.899 24.5436L114.82 23.6735L114.779 22.8058V21.9643L114.82 21.0942L114.899 20.2646L115.056 19.3945L115.214 18.5673L115.491 17.3014L115.809 16.038L116.121 14.7793L116.439 13.5135L116.477 13.1583V12.8388L116.439 12.5623L116.32 12.3239L116.162 12.1261L115.923 12.0092L115.646 11.8901L115.331 11.8114L115.013 11.7327L114.698 11.7709L114.459 11.8114L114.22 11.9306L114.022 12.0879L113.864 12.3263L113.745 12.6028L113.626 12.958L113.547 13.5111L113.47 14.0641L113.313 15.1703L111.88 24.1789L111.887 24.1813ZM117.586 2.96484H117.347L117.108 3.00298L116.869 3.08403L116.63 3.1627L116.432 3.27951L116.234 3.43923L116.035 3.59656L115.878 3.7539L115.758 3.95176L115.639 4.14962L115.522 4.38801L115.443 4.62639L115.403 4.86478V5.34156L115.443 5.57994L115.522 5.93514L115.639 6.24981L115.878 6.88154L115.957 7.11992L116.076 7.31779L116.234 7.4346L116.353 7.51565L116.551 7.55379H116.747L116.945 7.51565L117.184 7.4346L117.578 7.27726L117.937 7.03887L118.223 6.75519L118.462 6.43575L118.66 6.08056L118.818 5.72536L118.937 5.32964L119.057 4.89577L119.095 4.50005V4.10671L119.016 3.79204L118.859 3.51551L118.66 3.27712L118.343 3.11979L118.027 3.00059L117.59 2.96245L117.586 2.96484Z" fill="#2A2E6A"/>
<path fill-rule="evenodd" clip-rule="evenodd" d="M64.1558 26.2708L63.7999 26.3495L63.4822 26.39H63.2052L62.9664 26.3113L62.7275 26.1516L62.5675 25.9132L62.4099 25.6367L62.2523 25.2815L61.5787 23.2266L60.9028 21.1741L59.4698 17.1048L59.3504 16.9094L59.2716 16.7115L59.1522 16.5518L59.0328 16.435L58.8751 16.3539L58.7175 16.3158L58.4787 16.2752H58.2398L54.7576 16.3158L51.273 16.2752H51.0342L50.836 16.3158L50.6377 16.3539L50.4801 16.435L50.3607 16.5518L50.2031 16.671L50.0836 16.8688L50.0048 17.0667L48.0058 21.217L47.017 23.3101L46.0258 25.4031L45.8682 25.7201L45.7106 25.9585L45.5123 26.1564L45.2735 26.3161L45.0347 26.3543L44.7194 26.3948L44.4018 26.3543L44.0459 26.2756L46.1047 22.2468L50.2245 14.0654L54.3803 5.85058L54.4997 5.61219L54.6573 5.41433L54.8149 5.257L55.0132 5.1378L55.1708 5.05914L55.4096 5.02099L55.8873 4.98047H56.1644L56.3626 5.05914L56.4796 5.1378L56.599 5.29752L56.6779 5.41433L56.7567 5.61219L56.8761 5.96739L63.8429 25.365L64.1582 26.2732L64.1558 26.2708ZM58.7724 15.131L55.5673 6.16287L50.9769 15.131H58.7724Z" fill="#2A2E6A"/>
<path fill-rule="evenodd" clip-rule="evenodd" d="M8.46907 25.2829L8.82493 24.6511L9.06377 24.2149L13.733 14.9321L18.3234 5.6493L18.4834 5.37278L18.6816 5.17491L18.9181 5.05572L19.1163 5.01758H19.3528H19.6298L20.1839 5.05572L18.7198 7.86154L17.2964 10.5863L13.4965 18.0931L11.5954 21.8453L9.73728 25.5975L9.57726 25.8741L9.41963 26.0719L9.2214 26.1911L9.02317 26.3079L8.78672 26.3485H8.58849L8.11321 26.389H7.83616L7.67853 26.3079L7.51851 26.2293L7.43969 26.1125L7.36088 25.9527L7.32267 25.7954L7.20325 25.4402L0.434679 6.40022L0 5.09625L0.475281 5.05572L0.871746 5.01758H1.10819L1.34464 5.09625L1.46406 5.21306L1.62169 5.45144L1.86052 6.20236L8.46907 25.2829Z" fill="#2A2E6A"/>
<path fill-rule="evenodd" clip-rule="evenodd" d="M29.7227 24.2937L31.8602 24.9659L32.8108 25.283L33.7207 25.519L34.3131 25.5976L34.8672 25.6763H35.4618H36.0159L36.57 25.5976L37.1241 25.4808L37.6782 25.283L38.2323 25.0446L38.5882 24.8467L38.9441 24.5702L39.2211 24.3342L39.4982 24.0171L39.737 23.7025L39.8946 23.3854L40.0522 23.0302L40.1717 22.675L40.2123 22.3198L40.2505 21.9646L40.2123 21.5689L40.1311 21.2137L40.014 20.8585L39.854 20.5033L39.6558 20.1457L39.4193 19.8311L38.9058 19.278L38.4306 18.7631L37.3606 17.7762L35.2636 15.7999L33.7207 14.4197L32.9684 13.7069L32.2161 12.9965L31.7408 12.4029L31.3467 11.8117L31.1485 11.5352L31.0291 11.2181L30.9097 10.9035L30.7926 10.5864L30.752 10.2312L30.6732 9.91416V9.55896V9.20376L30.752 8.84856L30.7926 8.49337L30.9097 8.13817L31.0697 7.78297L31.2273 7.38725L31.3849 7.0702L31.5832 6.75553L31.8196 6.479L32.0585 6.20247L32.2949 6.00461L32.572 5.76622L32.849 5.57074L33.1666 5.41102L33.4437 5.25369L34.1148 5.01768L34.8289 4.89849L35.5407 4.7793H36.0948H36.6489L37.757 4.81982L39.9352 4.97716L40.2505 5.05583L40.4893 5.17502L40.6063 5.29421L40.6852 5.48969V5.72808L40.7258 5.92594L40.6852 6.43847L39.1017 6.04275L38.3111 5.92594L37.5206 5.80675H36.7277L35.9371 5.84727L35.1848 5.92594L34.7883 6.00461L34.4325 6.1238L33.9572 6.31928L33.5631 6.51714L33.2049 6.79367L32.8896 7.0702L32.6126 7.38725L32.3737 7.70192L32.2161 8.09765L32.0967 8.45284L32.0179 8.84856L31.9796 9.24429L32.0179 9.63763L32.0967 10.0739L32.2161 10.4672L32.4143 10.8629L32.6508 11.2587L32.9684 11.652L33.6801 12.4029L34.4325 13.1538L35.9753 14.6151L37.6782 16.1575L39.4193 17.6975L40.0522 18.2887L40.2911 18.6058L40.5681 18.9609L40.7664 19.278L40.9622 19.6332L41.1222 19.9884L41.2799 20.3436L41.3993 20.7393L41.4375 21.0945L41.4781 21.4902L41.5163 21.886L41.4781 22.3198L41.3993 22.7132L41.3181 23.1494L41.1604 23.5833L41.0028 23.979L40.8046 24.3747L40.5681 24.7299L40.3293 25.0064L40.0928 25.283L39.7752 25.5595L39.4982 25.7574L39.1829 25.9528L38.8652 26.1126L38.5094 26.2699L38.1535 26.3891L37.757 26.4678L37.0047 26.6251L36.2142 26.6656H35.5025L34.8289 26.5869L34.1148 26.5059L33.4031 26.4272L32.0179 26.1507L30.6326 25.8742L30.5156 25.836L30.3962 25.7168L30.2768 25.519L30.1979 25.3211L29.9591 24.8467L29.7227 24.2937Z" fill="#2A2E6A"/>
<path fill-rule="evenodd" clip-rule="evenodd" d="M153.009 15.7214L152.493 16.9086L152.137 17.6571L151.703 18.408L151.189 19.2376L150.635 19.9885L150.04 20.6989L149.367 21.3307L148.615 21.9242L147.824 22.4392L146.993 22.873L146.083 23.2282L145.648 23.3474H145.173H144.934L144.736 23.3069L144.54 23.2282L144.38 23.1495L144.261 22.9898L144.182 22.7943L144.144 22.5965L144.103 22.3581V21.8861L144.144 21.6477L144.182 21.4498L144.421 20.8181L144.698 20.2245L144.975 19.6333L145.29 19.0803L145.608 18.5272L145.964 18.0147L146.36 17.4998L146.756 17.0254L147.191 16.551L147.626 16.1171L148.101 15.6833L148.615 15.2875L149.13 14.9323L149.685 14.5771L150.239 14.2601L150.872 13.9836L151.347 13.7857L151.583 13.707H151.822H152.018L152.178 13.7476L152.336 13.7857L152.493 13.8668L152.653 14.0241L152.732 14.1433L152.852 14.3388L152.93 14.5366L152.969 14.775L153.009 15.0515V15.7214Z" fill="#2A2E6A"/>
<path fill-rule="evenodd" clip-rule="evenodd" d="M23.1523 26.3089L23.9047 5.05664H25.1705L24.4588 26.3089H23.1523Z" fill="#2A2E6A"/>
<path fill-rule="evenodd" clip-rule="evenodd" d="M166.11 6.04215L166.031 6.16135L165.99 6.28054V6.63574L165.911 6.95041L165.713 7.58452L165.675 7.66319V7.78238V7.86105L165.634 7.93971L165.515 8.09705L165.477 8.29491V8.45225L165.515 8.65011V8.80744L165.357 9.52022L165.121 10.1901L165.08 10.2306V10.3093L165.121 10.388V10.4666L165.08 10.6263L164.961 10.9029H164.923V11.0602L164.882 11.2175L164.803 11.5346L164.724 11.8493V12.009L164.765 12.1663V12.245L164.724 12.3237L164.646 12.4834L164.605 12.6407V12.9172L164.526 13.1938L164.328 13.7063L164.29 13.8255L164.328 13.9447L164.29 14.0615L164.17 14.2999L164.13 14.4191V14.5359L164.091 14.8124L164.013 15.7207L163.893 16.7481L163.695 18.2094V18.2881V18.4478L163.736 18.486L163.695 18.5265L163.537 18.6457L163.299 18.6838L162.943 18.7243H162.549L162.19 18.6838L161.834 18.567L161.717 18.486L161.677 18.3286L161.636 17.7374L161.677 17.1033L161.717 16.7481L161.875 16.4334L161.954 16.2356V15.9972V15.6039V15.4847L161.992 15.3273L162.073 15.0889L162.112 15.0508V14.9721V14.6551L162.152 14.338L162.269 13.6682L162.389 13.1938L162.508 12.7194L162.549 12.6788V12.6002L162.508 12.4428V12.3237L162.627 12.0877L162.706 11.9685L162.744 11.8111L162.706 11.5346V11.4154L162.744 11.3367L162.864 11.1389L162.904 10.9815V10.5858L162.943 10.1114L163.021 9.04583L163.1 8.8885L163.141 8.72878L163.181 8.69063V8.61197L163.22 7.82052L163.26 7.46532L163.339 7.0696V6.87174L163.299 6.7144V6.63574L163.38 6.55707L163.459 6.4784L163.497 6.24001L163.537 6.00401L163.576 5.92534L163.657 5.84668L163.972 5.4891L164.13 5.33176L164.328 5.21257L164.526 5.1339L164.724 5.05523L165.121 4.97656L165.2 5.01709L165.477 5.1339L165.792 5.29362L165.871 5.41043L165.99 5.52962L166.11 5.72748V6.04215Z" fill="#4D9C45"/>
<path fill-rule="evenodd" clip-rule="evenodd" d="M160.568 24.0964L160.688 24.0582L160.767 23.9795V23.8603L160.726 23.7817V23.5838L160.767 23.4646L160.886 23.1881L161.161 22.8329L161.44 22.5182L161.677 22.3204L161.796 22.2417L161.913 22.2012H162.111H162.269L162.467 22.2417L162.627 22.3585L162.744 22.4396L162.864 22.4777L163.1 22.5969H163.141H163.181L163.298 22.6756L163.379 22.7542L163.458 22.8734L163.496 23.0713V23.2286L163.537 23.4265V23.5838V23.703L163.496 23.7817L163.418 23.9009L163.339 24.0177V24.1369L163.379 24.2561L163.339 24.4134L163.219 24.6113L163.021 24.8473L162.825 25.0451L162.508 25.243L162.35 25.3217L162.152 25.3622L162.111 25.4003L162.032 25.5195L161.913 25.56H161.796L161.677 25.5195H161.598L161.44 25.56H161.359L161.161 25.5195L160.965 25.4003L160.805 25.243L160.767 25.1238V24.9665V24.8091L160.726 24.6518L160.688 24.5326L160.568 24.4539V24.0964Z" fill="#4D9C45"/>
<path d="M172.56 0.553058H171.056L171.134 0H174.817L174.698 0.553058H173.193L172.324 5.13486H171.691L172.56 0.553058Z" fill="#231F20"/>
<path d="M178.734 5.13486L179.09 2.36957L179.209 1.50184L179.367 0.631726L178.973 1.46131L178.536 2.2909L177.034 5.13486H176.518L176.162 2.33143L176.043 1.46131L176.004 0.631726H175.964L175.567 2.36957L174.855 5.13486H174.263L175.608 0H176.439L176.835 2.96315L176.914 3.6354L176.952 4.2266L177.27 3.6354L177.588 2.96315L179.169 0H180L179.329 5.13486H178.734Z" fill="#231F20"/>
</g>
<defs>
<clipPath id="clip0_7645_117429">
<rect width="180" height="35" fill="white"/>
</clipPath>
</defs>
</svg>
